<svg width="120" height="120" viewBox="0 0 120 120" fill="none" xmlns="http://www.w3.org/2000/svg">
<path d="M60 0C93.1371 0 120 26.8629 120 60C120 93.1371 93.1371 120 60 120C26.8629 120 0 93.1371 0 60C0 26.8629 26.8629 0 60 0ZM59.998 28.001C51.3116 28.001 50.2204 28.039 46.8076 28.1943C43.4011 28.3504 41.0756 28.8893 39.041 29.6807C36.9364 30.498 35.1507 31.5918 33.3721 33.3711C31.5923 35.1496 30.4987 36.9352 29.6787 39.0391C28.8855 41.0743 28.3457 43.4005 28.1924 46.8057C28.0397 50.2189 28 51.3104 28 60.001C28 68.6917 28.0387 69.779 28.1934 73.1924C28.35 76.599 28.8891 78.9243 29.6797 80.959C30.4977 83.0636 31.5909 84.8493 33.3701 86.6279C35.1481 88.4079 36.9338 89.5039 39.0371 90.3213C41.0731 91.1126 43.3996 91.6516 46.8057 91.8076C50.2187 91.9629 51.3092 92.001 59.999 92.001C68.6898 92.001 69.7775 91.9629 73.1904 91.8076C76.5971 91.6516 78.9259 91.1126 80.9619 90.3213C83.0658 89.504 84.8481 88.4078 86.626 86.6279C88.4059 84.8493 89.4993 83.0639 90.3193 80.96C91.106 78.9247 91.6466 76.5986 91.8066 73.1934C91.96 69.78 92 68.6917 92 60.001C92 51.3102 91.96 50.219 91.8066 46.8057C91.6466 43.3992 91.106 41.0737 90.3193 39.0391C89.4994 36.9346 88.4059 35.1497 86.626 33.3711C84.846 31.5912 83.0665 30.4973 80.96 29.6807C78.92 28.8893 76.5931 28.3504 73.1865 28.1943C69.7738 28.039 68.6866 28.001 59.998 28.001Z" fill="#050505"/>
<path d="M57.1328 33.7666C57.9847 33.7653 58.9352 33.7666 60.0029 33.7666C68.5467 33.7666 69.5598 33.7978 72.9336 33.9512C76.0533 34.0938 77.747 34.6148 78.875 35.0527C80.3684 35.6327 81.4334 36.3263 82.5527 37.4463C83.6726 38.5662 84.366 39.6328 84.9473 41.126C85.3853 42.2527 85.9078 43.9464 86.0498 47.0664C86.2031 50.4396 86.2363 51.4532 86.2363 59.9932C86.2363 68.5332 86.2031 69.5466 86.0498 72.9199C85.9071 76.0399 85.3853 77.7337 84.9473 78.8604C84.3673 80.3535 83.6726 81.4169 82.5527 82.5361C81.4327 83.6561 80.369 84.3497 78.875 84.9297C77.7483 85.3697 76.0532 85.8896 72.9336 86.0322C69.5605 86.1855 68.5467 86.2188 60.0029 86.2188C51.4584 86.2188 50.4456 86.1856 47.0723 86.0322C43.9523 85.8882 42.2586 85.3667 41.1299 84.9287C39.6367 84.3487 38.5701 83.6551 37.4502 82.5352C36.3303 81.4152 35.637 80.3513 35.0557 78.8574C34.6177 77.7307 34.0951 76.037 33.9531 72.917C33.7998 69.5438 33.7695 68.5303 33.7695 59.9854C33.7695 51.4402 33.7998 50.4317 33.9531 47.0586C34.0958 43.9388 34.6177 42.2452 35.0557 41.1172C35.6357 39.6238 36.3302 38.5565 37.4502 37.4365C38.5701 36.3167 39.6367 35.6233 41.1299 35.042C42.2579 34.602 43.9523 34.0818 47.0723 33.9385C50.0243 33.8051 51.1688 33.7655 57.1328 33.7588V33.7666ZM60.002 43.5674C50.9269 43.5679 43.5693 50.9258 43.5693 60.001C43.5696 69.0762 50.9277 76.4307 60.0029 76.4307C69.0782 76.4306 76.4333 69.0762 76.4336 60.001C76.4336 50.9255 69.0774 43.5674 60.002 43.5674ZM77.085 39.0801C74.9649 39.0801 73.2451 40.7983 73.2451 42.9189C73.2454 45.0388 74.9651 46.7588 77.085 46.7588C79.2048 46.7588 80.9245 45.0387 80.9248 42.9189C80.9248 40.7989 79.205 39.0782 77.085 39.0781V39.0801Z" fill="#050505"/>
<path d="M60.0027 49.3335C65.8934 49.3335 70.6695 54.1089 70.6695 60.0003C70.6695 65.891 65.8934 70.6671 60.0027 70.6671C54.1113 70.6671 49.3359 65.891 49.3359 60.0003C49.3359 54.1089 54.1113 49.3335 60.0027 49.3335V49.3335Z" fill="#050505"/>
</svg>
