<svg width="120" height="120" viewBox="0 0 120 120" fill="none" xmlns="http://www.w3.org/2000/svg">
<path d="M60 0C93.1371 0 120 26.8629 120 60C120 93.1371 93.1371 120 60 120C26.8629 120 0 93.1371 0 60C0 26.8629 26.8629 0 60 0ZM89.8711 39.2676C89.4336 35.5878 84.9715 36.3972 82.4883 37.2246C69.7253 42.0811 57.0894 47.297 44.5039 52.6055C37.1885 55.8464 29.3587 59.0722 22.3447 62.9355C18.9277 65.4375 24.7359 67.0904 28.6992 68.7314C33.1196 70.0898 38.2739 72.1706 42.6963 69.7363C51.3541 64.7629 59.3653 58.7585 67.5771 53.0996C69.0717 52.1433 73.6024 49.0221 72.0693 52.7246C66.3843 58.9416 60.0229 63.9645 54.0244 69.876C51.9211 71.5849 49.737 75.0219 52.0918 77.415C59.2817 82.4485 66.6213 87.32 73.9043 92.2393C76.9348 94.6588 81.6706 92.7018 82.3369 88.9209C84.2706 77.5706 86.2541 66.2218 87.9697 54.834C88.6456 49.6555 89.6314 44.4766 89.8711 39.2676Z" fill="#050505"/>
</svg>
